<svg xmlns="http://www.w3.org/2000/svg" viewBox="0 0 256 256" role="img" aria-label="EchoTalk icon">
  <defs>
    <linearGradient id="bg" x1="32" y1="24" x2="224" y2="232" gradientUnits="userSpaceOnUse">
      <stop offset="0" stop-color="#a78bfa"/>
      <stop offset="0.52" stop-color="#6366f1"/>
      <stop offset="1" stop-color="#1e1b4b"/>
    </linearGradient>
    <linearGradient id="mic" x1="91" y1="52" x2="165" y2="184" gradientUnits="userSpaceOnUse">
      <stop offset="0" stop-color="#ffffff"/>
      <stop offset="1" stop-color="#ede9fe"/>
    </linearGradient>
    <filter id="shadow" x="-20%" y="-20%" width="140%" height="150%">
      <feDropShadow dx="0" dy="12" stdDeviation="10" flood-color="#0b0617" flood-opacity="0.35"/>
    </filter>
  </defs>

  <rect width="256" height="256" rx="56" fill="url(#bg)"/>
  <path d="M49 82c0-18 15-33 33-33h92c18 0 33 15 33 33v47c0 18-15 33-33 33h-30l-42 35c-6 5-15 1-15-7v-28h-5c-18 0-33-15-33-33V82z" fill="#e8e0f4" opacity=".18"/>

  <g filter="url(#shadow)">
    <rect x="92" y="54" width="72" height="104" rx="36" fill="url(#mic)"/>
    <rect x="110" y="74" width="36" height="12" rx="6" fill="#6366f1" opacity=".55"/>
    <rect x="110" y="98" width="36" height="12" rx="6" fill="#a78bfa" opacity=".65"/>
    <path d="M72 122a8 8 0 0 1 16 0c0 22 18 40 40 40s40-18 40-40a8 8 0 0 1 16 0c0 28-20 52-48 56v22h26a8 8 0 0 1 0 16H94a8 8 0 0 1 0-16h26v-22c-28-4-48-28-48-56z" fill="#f5f3ff"/>
  </g>

  <circle cx="202" cy="64" r="11" fill="#c4b5fd"/>
  <circle cx="55" cy="190" r="8" fill="#a78bfa" opacity=".85"/>
</svg>